<svg version="1.1" id="the-bikini" xmlns="http://www.w3.org/2000/svg" xmlns:xlink="http://www.w3.org/1999/xlink" x="0px" y="0px" viewBox="0 0 137.775 158.436" enable-background="new 0 0 137.775 158.436"
	 xml:space="preserve">
<g display="none">
	<g display="inline">
		<path fill="#E8E8E8" stroke="#444444" stroke-miterlimit="10" d="M124.514,2.307c-12.924-12.433-37.35,43.272-55.6,45.384
			c-17.638-2.108-42.742-57.806-55.65-45.384C-10.09,24.773,3.232,59.448,16.622,64.559c18.225,6.955,46.25-11.712,52.275-15.966
			c6.108,4.242,34.375,22.789,52.261,15.966C134.545,59.448,147.867,24.773,124.514,2.307z"/>
		<path fill="#E8E8E8" stroke="#444444" stroke-miterlimit="10" d="M76.498,48.748c0,2.387-3.349,4.323-7.481,4.323
			c-4.127,0-7.477-1.938-7.477-4.323s3.35-4.322,7.477-4.322C73.15,44.425,76.498,46.362,76.498,48.748z"/>
		<path fill="#E8E8E8" stroke="#444444" stroke-miterlimit="10" d="M73.307,48.748c0,1.367-1.922,2.477-4.29,2.477
			c-2.363,0-4.28-1.108-4.28-2.477c0-1.366,1.917-2.475,4.28-2.475C71.385,46.273,73.307,47.381,73.307,48.748z"/>
	</g>
	<path display="inline" fill="#E8E8E8" stroke="#444444" stroke-miterlimit="10" d="M115.93,116.177H68.539H67.91H21.846
		c-1.153,0-5.181,0-5.181,2.537c0,3.353,18.646-1.241,22.601,4.011c13.098,17.397,13.775,19.621,23.584,33.335
		c1.852,2.588,12,2.414,13.574,0c9.562-14.665,10.51-17.663,22.086-33.335c3.906-5.287,22.602-0.658,22.602-4.011
		C121.111,116.177,117.082,116.177,115.93,116.177z"/>
</g>
<g display="none">
	<path display="inline" fill="#E8E8E8" stroke="#444444" stroke-miterlimit="10" d="M97.766,52.356
		c-5.95-11.1-22.682-36.754-26.046-41.891c1.379-0.179,2.902-1.392,3.833-3.242c1.24-2.466,0.951-5.075-0.645-5.83
		c-1.383-0.656-3.297,0.303-4.588,2.18c-1.846-2.839-4.804-4.266-6.635-3.189c-1.848,1.083-1.851,4.3-0.008,7.184
		c1.342,2.096,3.288,3.425,4.961,3.582c-4.354,6.103-19.508,27.618-25.111,39.069c-7.714,12.737-21.843,35.604-13.924,43.989
		c5.984,6.336,28.405,7.187,35.85,1.223h9.028v-0.056c7.375,6.021,29.911,5.188,35.913-1.167
		C117.889,86.274,105.641,65.372,97.766,52.356z M73.689,3.816c1.163,0.551,1.373,2.453,0.47,4.247
		c-0.61,1.216-1.574,2.063-2.495,2.318c-0.166-0.258-0.291-0.443-0.38-0.583c0.685-1.251,0.587-3.176-0.334-5.105
		C71.822,3.819,72.88,3.433,73.689,3.816z M70.29,5.492c0.022,0.034,0.051,0.063,0.071,0.098c0.927,1.45,1.201,3.004,0.846,4.095
		c-0.047-0.07-0.075-0.113-0.081-0.123l-1.327-0.029c-0.017,0.022-0.053,0.074-0.083,0.113c-0.49-0.854-0.436-2.241,0.237-3.574
		C70.055,5.867,70.17,5.675,70.29,5.492z M65.492,8.452c-1.343-2.101-1.34-4.444,0.006-5.234c1.137-0.668,2.867,0,4.186,1.488
		c-0.9,1.938-0.862,3.908-0.004,4.99c-0.168,0.235-0.491,0.683-0.935,1.305C67.614,10.75,66.374,9.832,65.492,8.452z M73.631,93.817
		h-7.263c-9.911-11.731-16.961-26.458-22.055-41.482c4.99-11.107,22.429-35.753,26.108-40.907
		c3.371,5.149,19.036,29.175,25.352,40.64C90.676,67.184,83.602,82.017,73.631,93.817z"/>
	<path display="inline" fill="#E8E8E8" stroke="#444444" stroke-miterlimit="10" d="M105.886,120.515
		c0.557-1.724,0.241-3.363-0.829-3.871c-1.232-0.589-3,0.547-3.944,2.533c-0.859,1.807-0.737,3.683,0.217,4.451
		c-0.625-0.596-0.679-1.92-0.076-3.185c0.688-1.447,1.975-2.276,2.874-1.849c0.626,0.3,0.891,1.134,0.763,2.101
		c-1.954,0.487-3.363,1.672-3.523,2.958c0,0.01,0.002,0.016,0,0.024c0.002-0.007,0.005-0.013,0.007-0.021
		c0.219-1.032,1.542-1.949,3.236-2.157c0.033-0.004,0.063,0,0.096-0.004c-0.056,0.164-0.121,0.329-0.198,0.495
		c-0.197,0.415-0.447,0.77-0.719,1.068c-6.752,2.329-20.308,4.199-33.87,4.564c-13.402-0.362-26.791-2.19-33.621-4.48
		c-0.304-0.312-0.583-0.696-0.801-1.152c-0.077-0.166-0.144-0.331-0.197-0.495c0.031,0.004,0.061,0,0.095,0.004
		c1.696,0.208,3.018,1.125,3.237,2.157c0.002,0.009,0.004,0.015,0.007,0.021c-0.002-0.01,0-0.016,0-0.024
		c-0.162-1.286-1.571-2.471-3.523-2.958c-0.129-0.967,0.136-1.801,0.763-2.101c0.896-0.429,2.184,0.4,2.873,1.849
		c0.603,1.265,0.549,2.589-0.076,3.185c0.953-0.77,1.076-2.646,0.216-4.451c-0.942-1.986-2.71-3.122-3.944-2.533
		c-1.069,0.508-1.385,2.147-0.83,3.871c-2.652-0.306-4.956,0.767-5.161,2.419c-0.204,1.662,1.8,3.276,4.479,3.605
		c2.114,0.262,3.997-0.361,4.807-1.449c6.646,5.539,11.824,10.001,15.878,13.905c6.136,6.588,9.232,12.733,11.51,17.371
		c0.047,0.132,0.097,0.257,0.143,0.387c0.269,0.756,8.026,0.756,8.295,0c0.047-0.13,0.096-0.255,0.144-0.387
		c2.275-4.638,5.373-10.783,11.509-17.371c4.075-3.925,9.291-8.417,15.987-13.998c0.771,1.145,2.695,1.812,4.863,1.542
		c2.683-0.329,4.687-1.943,4.481-3.605C110.844,121.282,108.541,120.21,105.886,120.515z M34.85,125.887
		c-1.952-0.241-3.413-1.421-3.264-2.63c0.128-1.025,1.37-1.734,2.929-1.79c0.516,1.006,1.239,1.766,1.984,2.179
		c0.563,0.468,1.129,0.938,1.674,1.392C37.511,125.699,36.249,126.06,34.85,125.887z M105.149,125.887
		c-1.453,0.179-2.764-0.212-3.402-0.924c0.439-0.366,0.896-0.745,1.348-1.121c0.883-0.329,1.782-1.187,2.391-2.375
		c1.561,0.056,2.804,0.765,2.93,1.79C108.562,124.467,107.103,125.646,105.149,125.887z"/>
</g>
<g>
	<path id='bikini-bottom' fill="#E8E8E8" stroke="#444444" stroke-width="0.9916" stroke-miterlimit="10" d="M123.282,108.703
		c-6.966,5.084-30.64,11.355-54.239,11.33c-23.384-0.021-46.692-6.291-53.593-11.33c-0.67,4.482-0.987,10.132,0,16.043
		c13.243,3.274,42.066,19.01,47.986,31.273c3.428,1.759,8.919,1.994,11.857,0c5.922-12.264,34.744-27.999,47.988-31.273
		C124.267,118.834,123.952,113.184,123.282,108.703z"/>
	<path id="bikini-top" fill="#E8E8E8" stroke="#444444" stroke-width="0.9916" stroke-miterlimit="10" d="M111.582,0.926
		c-19.69,1.005-24.072,9.561-41.733,17.621c1.027,0.015,2.84,0.144,4.894,0.768c3.173,0.929,7.288,2.428,11.261,4.24
		c3.983,1.787,7.062,3.834,9.857,5.606c2.805,1.746,4.92,3.801,4.92,3.801L69.4,18.756c-0.014,0.01-0.021,0.014-0.034,0.02
		C51.285,10.652,47.027,1.94,27.15,0.926C18.57,0.488,2.902,3.919,2.902,25.266c0,20.08,15.969,27.513,25.464,28.398
		c18.196,1.698,29.884-7.233,40.537-8.068c-1.048-0.025-2.787-0.174-4.736-0.763c-3.172-0.931-7.288-2.433-11.26-4.243
		c-3.982-1.787-7.064-3.833-9.855-5.607c-2.805-1.744-4.922-3.802-4.922-3.802l31.82,14.401c0,0-0.063,0.008-0.161,0.009
		c10.665,0.818,22.358,9.773,40.576,8.073c9.496-0.887,25.465-8.318,25.465-28.398C135.829,3.919,120.161,0.488,111.582,0.926z"/>
</g>
</svg>
