<svg version="1.1" xmlns="http://www.w3.org/2000/svg" xmlns:xlink="http://www.w3.org/1999/xlink" x="0px" y="0px" viewBox="0 0 800 800" enable-background="new 0 0 800 800" xml:space="preserve">
<pattern  width="327" height="443" patternUnits="userSpaceOnUse" id="pattern_1_" viewBox="327 -443 327 443" overflow="visible">
	<g>
		<polygon fill="none" points="327,-443 654,-443 654,0 327,0 		"/>
		<g>
			<path fill="#F16675" d="M674.258-84.526v-35.833l-20.446,18.333C653.812-102.026,674.444-84.526,674.258-84.526z"/>
		</g>
		<g>
			<polygon fill="#5D6F70" points="327,-389.505 363,-371.505 399,-389.505 			"/>
			<polygon fill="#5D6F70" points="435,-389.505 471,-371.505 507,-389.505 			"/>
			<polygon fill="#5D6F70" points="543,-389.505 579,-371.505 615,-389.505 			"/>
			<polygon fill="#EAE97B" points="453,-371.505 417,-389.505 381,-371.505 			"/>
			<polygon fill="#EAE97B" points="561,-371.505 525,-389.505 489,-371.505 			"/>
			<polygon fill="#EAE97B" points="669,-371.505 633,-389.505 597,-371.505 			"/>
			<polygon fill="#5D6F70" points="723,-353.505 327,-353.505 327,-362.505 723,-362.505 			"/>
			<polygon fill="#F16675" points="723,-398.505 327,-398.505 327,-407.505 723,-407.505 			"/>
			<g>
				<polygon fill="#F16675" points="388.714,-309.791 388.714,-320.076 378.429,-320.076 378.429,-330.362 368.143,-330.362 
					368.143,-340.647 357.857,-340.647 357.857,-330.362 347.571,-330.362 347.571,-320.076 337.286,-320.076 337.286,-309.791 
					327,-309.791 327,-299.505 345,-299.505 363,-317.505 381,-299.505 399,-299.505 399,-309.791 				"/>
				<polygon fill="#80C4BA" points="372,-299.505 363,-308.505 354,-299.505 				"/>
			</g>
			<g>
				<polygon fill="#F16675" points="496.714,-309.791 496.714,-320.076 486.429,-320.076 486.429,-330.362 476.143,-330.362 
					476.143,-340.647 465.857,-340.647 465.857,-330.362 455.571,-330.362 455.571,-320.076 445.286,-320.076 445.286,-309.791 
					435,-309.791 435,-299.505 453,-299.505 471,-317.505 489,-299.505 507,-299.505 507,-309.791 				"/>
				<polygon fill="#80C4BA" points="480,-299.505 471,-308.505 462,-299.505 				"/>
			</g>
			<g>
				<polygon fill="#F16675" points="604.714,-309.791 604.714,-320.076 594.429,-320.076 594.429,-330.362 584.143,-330.362 
					584.143,-340.647 573.857,-340.647 573.857,-330.362 563.571,-330.362 563.571,-320.076 553.286,-320.076 553.286,-309.791 
					543,-309.791 543,-299.505 561,-299.505 579,-317.505 597,-299.505 615,-299.505 615,-309.791 				"/>
				<polygon fill="#80C4BA" points="588,-299.505 579,-308.505 570,-299.505 				"/>
			</g>
			<g>
				<polygon fill="#EAE97B" points="417,-308.505 399,-326.505 417,-344.505 435,-326.505 				"/>
				<polygon fill="#EAE97B" points="417,-308.505 399,-326.505 417,-344.505 435,-326.505 				"/>
				<polygon fill="#EAE97B" points="417,-308.505 399,-326.505 417,-344.505 435,-326.505 				"/>
				<polygon fill="#FFFFFF" points="417,-334.005 424.5,-326.505 417,-319.005 409.5,-326.505 				"/>
			</g>
			<g>
				<polygon fill="#EAE97B" points="525,-308.505 507,-326.505 525,-344.505 543,-326.505 				"/>
				<polygon fill="#EAE97B" points="525,-308.505 507,-326.505 525,-344.505 543,-326.505 				"/>
				<polygon fill="#EAE97B" points="525,-308.505 507,-326.505 525,-344.505 543,-326.505 				"/>
				<polygon fill="#FFFFFF" points="525,-334.005 532.5,-326.505 525,-319.005 517.5,-326.505 				"/>
			</g>
			<g>
				<polygon fill="#EAE97B" points="633,-308.505 615,-326.505 633,-344.505 651,-326.505 				"/>
				<polygon fill="#EAE97B" points="633,-308.505 615,-326.505 633,-344.505 651,-326.505 				"/>
				<polygon fill="#EAE97B" points="633,-308.505 615,-326.505 633,-344.505 651,-326.505 				"/>
				<polygon fill="#FFFFFF" points="633,-334.005 640.5,-326.505 633,-319.005 625.5,-326.505 				"/>
			</g>
			<polygon fill="#5D6F70" points="723,-281.5 327,-281.5 327,-290.5 723,-290.5 			"/>
			<polygon fill="#5D6F70" points="723,-230.501 327,-230.501 327,-239.501 723,-239.501 			"/>
			<path fill="#80C4BA" d="M327.001-278.172v35.833l20.446-18.333C347.447-260.672,326.815-278.172,327.001-278.172z"/>
			<path fill="#EAE97B" d="M347.448-278.172v35.833l20.446-18.333C367.894-260.672,347.262-278.172,347.448-278.172z"/>
			<path fill="#80C4BA" d="M367.895-278.172v35.833l20.446-18.333C388.341-260.672,367.709-278.172,367.895-278.172z"/>
			<path fill="#EAE97B" d="M388.341-278.172v35.833l20.446-18.333C408.788-260.672,388.156-278.172,388.341-278.172z"/>
			<path fill="#80C4BA" d="M408.788-278.172v35.833l20.446-18.333C429.234-260.672,408.603-278.172,408.788-278.172z"/>
			<path fill="#EAE97B" d="M429.235-278.172v35.833l20.446-18.333C449.681-260.672,429.049-278.172,429.235-278.172z"/>
			<path fill="#80C4BA" d="M449.682-278.172v35.833l20.446-18.333C470.128-260.672,449.496-278.172,449.682-278.172z"/>
			<path fill="#EAE97B" d="M470.128-278.172v35.833l20.446-18.333C490.574-260.672,469.942-278.172,470.128-278.172z"/>
			<path fill="#80C4BA" d="M490.575-278.172v35.833l20.446-18.333C511.021-260.672,490.389-278.172,490.575-278.172z"/>
			<path fill="#EAE97B" d="M511.022-278.172v35.833l20.446-18.333C531.468-260.672,510.836-278.172,511.022-278.172z"/>
			<path fill="#80C4BA" d="M531.469-278.172v35.833l20.446-18.333C551.915-260.672,531.283-278.172,531.469-278.172z"/>
			<path fill="#EAE97B" d="M551.916-278.172v35.833l20.446-18.333C572.361-260.672,551.729-278.172,551.916-278.172z"/>
			<path fill="#80C4BA" d="M572.362-278.172v35.833l20.446-18.333C592.808-260.672,572.176-278.172,572.362-278.172z"/>
			<path fill="#EAE97B" d="M592.809-278.172v35.833l20.446-18.333C613.255-260.672,592.623-278.172,592.809-278.172z"/>
			<path fill="#80C4BA" d="M613.255-278.172v35.833l20.446-18.333C633.702-260.672,613.07-278.172,613.255-278.172z"/>
			<path fill="#EAE97B" d="M633.702-278.172v35.833l20.446-18.333C654.148-260.672,633.517-278.172,633.702-278.172z"/>
			<polygon fill="#5D6F70" points="723,-9.491 327,-9.491 327,-0.491 723,-0.491 			"/>
			<g>
				<polygon fill="#EC9C77" points="388.714,-53.205 388.714,-42.919 378.429,-42.919 378.429,-32.633 368.143,-32.633 
					368.143,-22.348 357.857,-22.348 357.857,-32.633 347.571,-32.633 347.571,-42.919 337.286,-42.919 337.286,-53.205 
					327,-53.205 327,-63.491 345,-63.491 363,-45.49 381,-63.491 399,-63.491 399,-53.205 				"/>
				<polygon fill="#EAE97B" points="372,-63.491 363,-54.49 354,-63.491 				"/>
			</g>
			<g>
				<polygon fill="#EC9C77" points="496.714,-53.205 496.714,-42.919 486.429,-42.919 486.429,-32.633 476.143,-32.633 
					476.143,-22.348 465.857,-22.348 465.857,-32.633 455.571,-32.633 455.571,-42.919 445.286,-42.919 445.286,-53.205 
					435,-53.205 435,-63.491 453,-63.491 471,-45.49 489,-63.491 507,-63.491 507,-53.205 				"/>
				<polygon fill="#EAE97B" points="480,-63.491 471,-54.49 462,-63.491 				"/>
			</g>
			<g>
				<polygon fill="#EC9C77" points="604.714,-53.205 604.714,-42.919 594.429,-42.919 594.429,-32.633 584.143,-32.633 
					584.143,-22.348 573.857,-22.348 573.857,-32.633 563.571,-32.633 563.571,-42.919 553.286,-42.919 553.286,-53.205 
					543,-53.205 543,-63.491 561,-63.491 579,-45.49 597,-63.491 615,-63.491 615,-53.205 				"/>
				<polygon fill="#EAE97B" points="588,-63.491 579,-54.49 570,-63.491 				"/>
			</g>
			<g>
				<polygon fill="#EAE97B" points="417,-54.491 399,-36.491 417,-18.491 435,-36.491 				"/>
				<polygon fill="#EAE97B" points="417,-54.491 399,-36.491 417,-18.491 435,-36.491 				"/>
				<polygon fill="#80C4BA" points="417,-54.491 399,-36.491 417,-18.491 435,-36.491 				"/>
				<polygon fill="#FFFFFF" points="417,-28.991 424.5,-36.491 417,-43.991 409.5,-36.491 				"/>
			</g>
			<g>
				<polygon fill="#EAE97B" points="525,-54.491 507,-36.491 525,-18.491 543,-36.491 				"/>
				<polygon fill="#EAE97B" points="525,-54.491 507,-36.491 525,-18.491 543,-36.491 				"/>
				<polygon fill="#80C4BA" points="525,-54.491 507,-36.491 525,-18.491 543,-36.491 				"/>
				<polygon fill="#FFFFFF" points="525,-28.991 532.5,-36.491 525,-43.991 517.5,-36.491 				"/>
			</g>
			<g>
				<polygon fill="#EAE97B" points="633,-54.491 615,-36.491 633,-18.491 651,-36.491 				"/>
				<polygon fill="#EAE97B" points="633,-54.491 615,-36.491 633,-18.491 651,-36.491 				"/>
				<polygon fill="#80C4BA" points="633,-54.491 615,-36.491 633,-18.491 651,-36.491 				"/>
				<polygon fill="#FFFFFF" points="633,-28.991 640.5,-36.491 633,-43.991 625.5,-36.491 				"/>
			</g>
			<g>
				<path fill="#80C4BA" d="M399-191.791h-10.286v-10.286h-10.286v-10.286h-10.286v-10.286h-10.285v10.286h-10.286v10.286h-10.286
					v10.286H327v10.286h0.026L327-181.491v10.286h10.286v10.286h10.286v10.286h10.286v10.286h10.285v-10.286h10.286v-10.286h10.286
					v-10.286H399v-10.286l-0.032-0.014H399V-191.791z M381-181.491l-18,18l-18-18l-0.03-0.014H345l18-18l18,18h0.033L381-181.491z"
					/>
				<polygon fill="#F16675" points="372,-181.505 363,-190.505 354,-181.505 354.089,-181.505 354,-181.491 363,-172.491 
					372,-181.491 371.927,-181.505 				"/>
			</g>
			<g>
				<path fill="#80C4BA" d="M507-191.791h-10.286v-10.286h-10.286v-10.286h-10.286v-10.286h-10.285v10.286h-10.286v10.286h-10.286
					v10.286H435v10.286h0.028L435-181.491v10.286h10.286v10.286h10.286v10.286h10.286v10.286h10.285v-10.286h10.286v-10.286h10.286
					v-10.286H507v-10.286l-0.032-0.014H507V-191.791z M489-181.491l-18,18l-18-18l-0.026-0.014H453l18-18l18,18h0.032L489-181.491z"
					/>
				<polygon fill="#F16675" points="480,-181.505 471,-190.505 462,-181.505 462.051,-181.505 462,-181.491 471,-172.491 
					480,-181.491 479.948,-181.505 				"/>
			</g>
			<g>
				<path fill="#80C4BA" d="M615-191.791h-10.286v-10.286h-10.286v-10.286h-10.286v-10.286h-10.285v10.286h-10.286v10.286h-10.286
					v10.286H543v10.286l0.035,0.014H543v10.286h10.286v10.286h10.286v10.286h10.286v10.286h10.285v-10.286h10.286v-10.286h10.286
					v-10.286H615v-10.286h-0.035l0.035-0.014V-191.791z M597-181.491l-18,18l-18-18h-0.031l0.031-0.014l18-18l18,18l0.029,0.014H597
					z"/>
				<polygon fill="#F16675" points="588,-181.505 579,-190.505 570,-181.505 570.053,-181.491 570,-181.491 579,-172.491 
					588,-181.491 587.95,-181.491 				"/>
			</g>
			<polygon fill="#F16675" points="723,-81.495 327,-81.495 327,-72.495 723,-72.495 			"/>
			<polygon fill="#5D6F70" points="723,-132.494 327,-132.494 327,-123.494 723,-123.494 			"/>
			<polygon fill="#EC9C77" points="416.667,-169.505 399,-142.505 435,-142.505 			"/>
			<polygon fill="#EC9C77" points="524.667,-169.505 507,-142.505 543,-142.505 			"/>
			<polygon fill="#EC9C77" points="632.667,-169.505 615,-142.505 651,-142.505 			"/>
			<polygon fill="#EC9C77" points="633.333,-192.508 651,-219.508 615,-219.508 			"/>
			<polygon fill="#EC9C77" points="525.333,-192.508 543,-219.508 507,-219.508 			"/>
			<polygon fill="#EC9C77" points="417.333,-192.508 435,-219.508 399,-219.508 			"/>
			<path fill="#5D6F70" d="M653.959-84.526v-35.833l-20.446,18.333C633.514-102.026,654.146-84.526,653.959-84.526z"/>
			<path fill="#F16675" d="M633.513-84.526v-35.833l-20.446,18.333C613.067-102.026,633.699-84.526,633.513-84.526z"/>
			<path fill="#5D6F70" d="M613.066-84.526v-35.833l-20.446,18.333C592.62-102.026,613.252-84.526,613.066-84.526z"/>
			<path fill="#F16675" d="M592.619-84.526v-35.833l-20.446,18.333C572.173-102.026,592.805-84.526,592.619-84.526z"/>
			<path fill="#5D6F70" d="M572.173-84.526v-35.833l-20.446,18.333C551.727-102.026,572.358-84.526,572.173-84.526z"/>
			<path fill="#F16675" d="M551.726-84.526v-35.833l-20.446,18.333C531.28-102.026,551.912-84.526,551.726-84.526z"/>
			<path fill="#5D6F70" d="M531.279-84.526v-35.833l-20.446,18.333C510.833-102.026,531.465-84.526,531.279-84.526z"/>
			<path fill="#F16675" d="M510.833-84.526v-35.833l-20.446,18.333C490.386-102.026,511.018-84.526,510.833-84.526z"/>
			<path fill="#5D6F70" d="M490.386-84.526v-35.833l-20.446,18.333C469.939-102.026,490.571-84.526,490.386-84.526z"/>
			<path fill="#F16675" d="M469.939-84.526v-35.833l-20.446,18.333C449.493-102.026,470.125-84.526,469.939-84.526z"/>
			<path fill="#5D6F70" d="M449.492-84.526v-35.833l-20.446,18.333C429.046-102.026,449.678-84.526,449.492-84.526z"/>
			<path fill="#F16675" d="M429.045-84.526v-35.833L408.6-102.026C408.6-102.026,429.231-84.526,429.045-84.526z"/>
			<path fill="#5D6F70" d="M408.599-84.526v-35.833l-20.446,18.333C388.153-102.026,408.785-84.526,408.599-84.526z"/>
			<path fill="#F16675" d="M388.152-84.526v-35.833l-20.446,18.333C367.706-102.026,388.338-84.526,388.152-84.526z"/>
			<path fill="#5D6F70" d="M367.705-84.526v-35.833l-20.446,18.333C347.259-102.026,367.891-84.526,367.705-84.526z"/>
			<path fill="#F16675" d="M347.258-84.526v-35.833l-20.446,18.333C326.812-102.026,347.444-84.526,347.258-84.526z"/>
			<path fill="#F16675" d="M363.156-181.581"/>
			<path fill="#F16675" d="M365.323-181.581"/>
			<polygon fill="#80C4BA" points="349.573,-411.333 339.906,-425 349.573,-438.667 359.239,-425 			"/>
			<polygon fill="#EAE97B" points="390.109,-411.333 380.442,-425 390.109,-438.667 399.775,-425 			"/>
			<polygon fill="#80C4BA" points="430.645,-411.333 420.979,-425 430.645,-438.667 440.312,-425 			"/>
			<polygon fill="#EAE97B" points="471.181,-411.333 461.514,-425 471.181,-438.667 480.848,-425 			"/>
			<polygon fill="#80C4BA" points="511.717,-411.333 502.05,-425 511.717,-438.667 521.383,-425 			"/>
			<polygon fill="#EAE97B" points="552.253,-411.333 542.586,-425 552.253,-438.667 561.919,-425 			"/>
			<polygon fill="#80C4BA" points="592.789,-411.333 583.123,-425 592.789,-438.667 602.456,-425 			"/>
			<polygon fill="#EAE97B" points="633.325,-411.333 623.659,-425 633.325,-438.667 642.992,-425 			"/>
		</g>
		<g>
			<polygon fill="#EAE97B" points="342,-371.505 306,-389.505 270,-371.505 			"/>
			<polygon fill="#5D6F70" points="396,-353.505 0,-353.505 0,-362.505 396,-362.505 			"/>
			<polygon fill="#F16675" points="396,-398.505 0,-398.505 0,-407.505 396,-407.505 			"/>
			<polygon fill="#5D6F70" points="396,-281.5 0,-281.5 0,-290.5 396,-290.5 			"/>
			<polygon fill="#5D6F70" points="396,-230.501 0,-230.501 0,-239.501 396,-239.501 			"/>
			<path fill="#EAE97B" d="M306.702-278.172v35.833l20.446-18.333C327.148-260.672,306.517-278.172,306.702-278.172z"/>
			<polygon fill="#5D6F70" points="396,-9.491 0,-9.491 0,-0.491 396,-0.491 			"/>
			<polygon fill="#F16675" points="396,-81.495 0,-81.495 0,-72.495 396,-72.495 			"/>
			<polygon fill="#5D6F70" points="396,-132.494 0,-132.494 0,-123.494 396,-123.494 			"/>
		</g>
	</g>
</pattern>
<g id="pattern">
	<rect fill="url(#pattern_1_)" width="800" height="800"/>
</g>
<g id="objects">
	<g>
		<rect y="692.911" fill="#FFFFFF" width="800" height="107.089"/>
		<rect y="692.911" opacity="0.75" fill="#FFFFFF" width="800" height="107.089"/>
	</g>
</g>
</svg>
